HIERARCHY
ROOT Hips
{
	OFFSET 0.000000 103.266502 0.000000
	CHANNELS 6 Xposition Yposition Zposition Xrotation Yrotation Zrotation 
	JOINT Spine
	{
		OFFSET -0.002400 12.777504 0.315300
		CHANNELS 3 Xrotation Yrotation Zrotation
		JOINT Spine1
		{
			OFFSET -0.002067 5.816869 0.032633
			CHANNELS 3 Xrotation Yrotation Zrotation
			JOINT Spine1_split
			{
				OFFSET -0.002067 5.816869 0.032633
				CHANNELS 3 Xrotation Yrotation Zrotation
				JOINT Spine2
				{
					OFFSET -0.002067 5.816869 0.032633
					CHANNELS 3 Xrotation Yrotation Zrotation
					JOINT Neck
					{
						OFFSET -0.003700 21.199493 -0.826900
						CHANNELS 3 Xrotation Yrotation Zrotation
						JOINT Head
						{
							OFFSET 0.000000 20.442200 4.834800
							CHANNELS 3 Xrotation Yrotation Zrotation
							JOINT HeadTop_End
							{
								OFFSET 0.000000 34.668396 4.968400
								CHANNELS 3 Xrotation Yrotation Zrotation
								End Site
								{
									OFFSET 0.000000 0.000000 0.000000
								}
							}
						}
					}
					JOINT LeftShoulder
					{
						OFFSET 3.288150 8.794197 -1.372250
						CHANNELS 3 Xrotation Yrotation Zrotation
						JOINT LeftShoulder_split
						{
							OFFSET 3.288150 8.794197 -1.372250
							CHANNELS 3 Xrotation Yrotation Zrotation
							JOINT LeftArm
							{
								OFFSET 11.953299 -2.279007 -0.146200
								CHANNELS 3 Xrotation Yrotation Zrotation
								JOINT LeftForeArm
								{
									OFFSET 18.448900 0.000000 0.000000
									CHANNELS 3 Xrotation Yrotation Zrotation
									JOINT LeftHand
									{
										OFFSET 29.527798 0.000000 0.000000
										CHANNELS 3 Xrotation Yrotation Zrotation
										JOINT LeftHandThumb1
										{
											OFFSET 10.739754 -2.369614 9.225399
											CHANNELS 3 Xrotation Yrotation Zrotation
											JOINT LeftHandThumb2
											{
												OFFSET 4.926170 -2.844131 2.844125
												CHANNELS 3 Xrotation Yrotation Zrotation
												JOINT LeftHandThumb3
												{
													OFFSET 4.614891 -2.664413 2.664409
													CHANNELS 3 Xrotation Yrotation Zrotation
													JOINT LeftHandThumb4
													{
														OFFSET 4.432465 -2.559082 2.559083
														CHANNELS 3 Xrotation Yrotation Zrotation
														End Site
														{
															OFFSET 0.000000 0.000000 0.000000
														}
													}
												}
											}
										}
										JOINT LeftHandIndex1
										{
											OFFSET 26.467674 0.187653 6.405298
											CHANNELS 3 Xrotation Yrotation Zrotation
											JOINT LeftHandIndex2
											{
												OFFSET 8.792900 0.000000 0.000000
												CHANNELS 3 Xrotation Yrotation Zrotation
												JOINT LeftHandIndex3
												{
													OFFSET 10.075203 0.000000 0.000000
													CHANNELS 3 Xrotation Yrotation Zrotation
													End Site
													{
														OFFSET 0.000000 0.000000 0.000000
													}
												}
											}
										}
										JOINT LeftHandMiddle1
										{
											OFFSET 25.764404 0.000000 0.000000
											CHANNELS 3 Xrotation Yrotation Zrotation
											JOINT LeftHandMiddle2
											{
												OFFSET 9.393974 0.000000 0.000000
												CHANNELS 3 Xrotation Yrotation Zrotation
												JOINT LeftHandMiddle3
												{
													OFFSET 10.771950 0.000000 0.000000
													CHANNELS 3 Xrotation Yrotation Zrotation
													End Site
													{
														OFFSET 0.000000 0.000000 0.000000
													}
												}
											}
										}
										JOINT LeftHandRing1
										{
											OFFSET 24.660927 0.144547 -6.225808
											CHANNELS 3 Xrotation Yrotation Zrotation
											JOINT LeftHandRing2
											{
												OFFSET 9.393799 0.000000 0.000000
												CHANNELS 3 Xrotation Yrotation Zrotation
												JOINT LeftHandRing3
												{
													OFFSET 9.928497 0.000000 0.000000
													CHANNELS 3 Xrotation Yrotation Zrotation
													End Site
													{
														OFFSET 0.000000 0.000000 0.000000
													}
												}
											}
										}
										JOINT LeftHandPinky1
										{
											OFFSET 23.655350 0.125290 -12.815412
											CHANNELS 3 Xrotation Yrotation Zrotation
											JOINT LeftHandPinky2
											{
												OFFSET 8.425102 0.000000 0.000000
												CHANNELS 3 Xrotation Yrotation Zrotation
												JOINT LeftHandPinky3
												{
													OFFSET 8.147003 0.000000 0.000000
													CHANNELS 3 Xrotation Yrotation Zrotation
													End Site
													{
														OFFSET 0.000000 0.000000 0.000000
													}
												}
											}
										}
									}
								}
							}
						}
					}
					JOINT RightShoulder
					{
						OFFSET -3.249400 8.794197 -1.372250
						CHANNELS 3 Xrotation Yrotation Zrotation
						JOINT RightShoulder_split
						{
							OFFSET -3.249400 8.794197 -1.372250
							CHANNELS 3 Xrotation Yrotation Zrotation
							JOINT RightArm
							{
								OFFSET -11.953299 -2.279007 -0.146200
								CHANNELS 3 Xrotation Yrotation Zrotation
								JOINT RightForeArm
								{
									OFFSET -18.448900 0.000000 0.000000
									CHANNELS 3 Xrotation Yrotation Zrotation
									JOINT RightHand
									{
										OFFSET -29.527802 0.000000 0.000000
										CHANNELS 3 Xrotation Yrotation Zrotation
										JOINT RightHandThumb1
										{
											OFFSET -10.739754 -2.369614 9.225399
											CHANNELS 3 Xrotation Yrotation Zrotation
											JOINT RightHandThumb2
											{
												OFFSET -4.926170 -2.844131 2.844125
												CHANNELS 3 Xrotation Yrotation Zrotation
												JOINT RightHandThumb3
												{
													OFFSET -4.614891 -2.664413 2.664409
													CHANNELS 3 Xrotation Yrotation Zrotation
													JOINT RightHandThumb4
													{
														OFFSET -4.432465 -2.559082 2.559083
														CHANNELS 3 Xrotation Yrotation Zrotation
														End Site
														{
															OFFSET 0.000000 0.000000 0.000000
														}
													}
												}
											}
										}
										JOINT RightHandIndex1
										{
											OFFSET -26.467674 0.187653 6.405298
											CHANNELS 3 Xrotation Yrotation Zrotation
											JOINT RightHandIndex2
											{
												OFFSET -8.792900 0.000000 0.000000
												CHANNELS 3 Xrotation Yrotation Zrotation
												JOINT RightHandIndex3
												{
													OFFSET -10.075203 0.000000 0.000000
													CHANNELS 3 Xrotation Yrotation Zrotation
													End Site
													{
														OFFSET 0.000000 0.000000 0.000000
													}
												}
											}
										}
										JOINT RightHandMiddle1
										{
											OFFSET -25.764404 0.000000 0.000000
											CHANNELS 3 Xrotation Yrotation Zrotation
											JOINT RightHandMiddle2
											{
												OFFSET -9.393974 0.000000 0.000000
												CHANNELS 3 Xrotation Yrotation Zrotation
												JOINT RightHandMiddle3
												{
													OFFSET -10.771950 0.000000 0.000000
													CHANNELS 3 Xrotation Yrotation Zrotation
													End Site
													{
														OFFSET 0.000000 0.000000 0.000000
													}
												}
											}
										}
										JOINT RightHandRing1
										{
											OFFSET -24.660927 0.144547 -6.225808
											CHANNELS 3 Xrotation Yrotation Zrotation
											JOINT RightHandRing2
											{
												OFFSET -9.393799 0.000000 0.000000
												CHANNELS 3 Xrotation Yrotation Zrotation
												JOINT RightHandRing3
												{
													OFFSET -9.928497 0.000000 0.000000
													CHANNELS 3 Xrotation Yrotation Zrotation
													End Site
													{
														OFFSET 0.000000 0.000000 0.000000
													}
												}
											}
										}
										JOINT RightHandPinky1
										{
											OFFSET -23.655350 0.125290 -12.815412
											CHANNELS 3 Xrotation Yrotation Zrotation
											JOINT RightHandPinky2
											{
												OFFSET -8.425102 0.000000 0.000000
												CHANNELS 3 Xrotation Yrotation Zrotation
												JOINT RightHandPinky3
												{
													OFFSET -8.147003 0.000000 0.000000
													CHANNELS 3 Xrotation Yrotation Zrotation
													End Site
													{
														OFFSET 0.000000 0.000000 0.000000
													}
												}
											}
										}
									}
								}
							}
						}
					}
				}
			}
		}
	}
	JOINT LeftUpLeg
	{
		OFFSET 11.394100 -6.187798 -0.413800
		CHANNELS 3 Xrotation Yrotation Zrotation
		JOINT LeftLeg
		{
			OFFSET 0.430247 -32.302673 3.732800
			CHANNELS 3 Xrotation Yrotation Zrotation
			JOINT LeftFoot
			{
				OFFSET -0.430247 -48.264931 -6.423300
				CHANNELS 3 Xrotation Yrotation Zrotation
				JOINT LeftToeBase
				{
					OFFSET 4.230900 -16.068199 23.438400
					CHANNELS 3 Xrotation Yrotation Zrotation
					JOINT LeftToe_End
					{
						OFFSET 4.510700 0.695400 19.974600
						CHANNELS 3 Xrotation Yrotation Zrotation
						End Site
						{
							OFFSET 0.000000 0.000000 0.000000
						}
					}
				}
			}
		}
	}
	JOINT RightUpLeg
	{
		OFFSET -11.333700 -6.187798 -0.413800
		CHANNELS 3 Xrotation Yrotation Zrotation
		JOINT RightLeg
		{
			OFFSET -0.430392 -32.302628 3.733000
			CHANNELS 3 Xrotation Yrotation Zrotation
			JOINT RightFoot
			{
				OFFSET 0.430392 -48.264973 -6.423500
				CHANNELS 3 Xrotation Yrotation Zrotation
				JOINT RightToeBase
				{
					OFFSET -4.230900 -16.068199 23.438400
					CHANNELS 3 Xrotation Yrotation Zrotation
					JOINT RightToe_End
					{
						OFFSET -4.510700 0.695400 19.974600
						CHANNELS 3 Xrotation Yrotation Zrotation
						End Site
						{
							OFFSET 0.000000 0.000000 0.000000
						}
					}
				}
			}
		}
	}
}
MOTION
Frames: 6
Frame Time: 0.016667
-6.603972 100.337936 -8.508347 4.315442 -4.789526 0.418045 5.052153 3.986036 0.421687 2.991727 2.867184 -1.819720 0.000000 0.000000 0.000000 2.926903 2.833091 -1.954512 -9.493065 -0.565100 0.882844 -20.378289 -2.771354 5.070002 -0.000001 0.000000 -0.000000 0.458515 2.606267 -6.757460 0.000000 0.000000 0.000000 25.580785 -52.523304 -38.981587 -0.000000 -19.285261 0.000001 -48.778267 -12.182553 -11.665778 -1.765983 13.580031 7.641517 4.742563 17.876569 1.476423 -0.125157 6.527496 3.024033 0.000000 -0.000001 0.000000 0.103560 1.192118 -9.929408 0.103566 1.192124 -9.929393 -0.000002 0.000000 -0.000001 0.103236 1.190220 -9.913404 0.103895 1.194015 -9.945392 -0.000000 0.000000 -0.000003 0.103560 1.192119 -9.929408 0.103567 1.192127 -9.929389 -0.000001 0.000001 0.000002 0.787116 5.188584 -9.457047 0.096227 -2.863095 -10.432486 -0.000002 0.000001 -0.000001 1.523273 1.245583 10.362046 0.000000 0.000000 0.000000 10.129994 46.984987 46.447404 -0.000011 29.255941 0.000019 -32.820586 0.835414 -2.238327 -2.082029 -13.461644 -8.151001 5.520666 -18.558744 -0.893693 -0.816667 -4.811731 -2.622804 0.000000 0.000001 0.000002 0.104546 -1.203691 9.928025 0.104549 -1.203676 9.928033 0.000001 0.000001 -0.000001 0.104543 -1.203688 9.928033 0.104552 -1.203679 9.928034 -0.000002 -0.000002 -0.000002 0.104545 -1.203691 9.928027 0.104552 -1.203677 9.928033 -0.000002 -0.000000 -0.000001 0.104546 -1.203692 9.928027 0.104548 -1.203677 9.928033 0.000002 -0.000001 0.000001 -41.358117 15.982120 8.401517 49.557585 -0.172115 9.262486 5.959061 -0.131178 -6.864915 -15.714937 -0.064360 0.228723 -0.000000 0.000001 0.000000 -15.154257 -21.326735 1.568004 25.664146 7.188163 -3.682534 -17.439778 0.497373 -2.279193 -0.000003 -0.000006 -0.000001 0.000000 -0.000000 0.000000 
-6.393771 100.547295 -6.953627 4.398296 -5.205582 0.612363 5.042068 4.233833 0.079814 2.962540 3.100123 -1.886527 0.000000 0.000000 0.000000 2.889891 3.064185 -2.034033 -9.523293 -0.578628 0.921802 -20.831831 -2.752601 4.825273 -0.000001 0.000000 -0.000000 0.455203 2.689158 -6.796492 0.000000 0.000000 0.000000 25.277205 -51.870502 -39.495972 0.000005 -18.901819 -0.000018 -49.654779 -12.159133 -13.005447 -1.765983 13.580033 7.641517 4.742561 17.876569 1.476423 -0.125158 6.527497 3.024034 -0.000000 -0.000002 -0.000000 0.103561 1.192121 -9.929408 0.103566 1.192127 -9.929397 0.000000 -0.000000 -0.000000 0.103236 1.190221 -9.913403 0.103896 1.194018 -9.945391 -0.000000 0.000001 -0.000002 0.103561 1.192122 -9.929409 0.103566 1.192128 -9.929394 -0.000001 -0.000000 -0.000001 0.787117 5.188583 -9.457046 0.096228 -2.863096 -10.432492 -0.000001 -0.000000 -0.000001 1.530164 1.252818 10.429239 0.000000 0.000000 0.000000 9.940783 46.715601 45.932602 0.000007 30.649583 -0.000010 -33.746346 0.701303 -2.595711 -2.082026 -13.461646 -8.150997 5.520663 -18.558744 -0.893694 -0.816665 -4.811730 -2.622803 -0.000001 0.000000 0.000001 0.104549 -1.203688 9.928027 0.104548 -1.203677 9.928033 -0.000002 -0.000001 -0.000001 0.104541 -1.203688 9.928033 0.104552 -1.203684 9.928033 0.000002 -0.000001 -0.000001 0.104548 -1.203689 9.928027 0.104553 -1.203678 9.928033 -0.000005 -0.000000 -0.000001 0.104549 -1.203691 9.928027 0.104550 -1.203678 9.928031 -0.000002 0.000001 -0.000000 -41.374168 16.331606 8.279172 45.699344 -1.382252 9.298909 4.709321 -0.012834 -8.029061 -9.013877 -0.269368 1.697578 -0.000000 0.000001 0.000000 -13.460431 -20.894549 1.015519 24.222651 7.513224 -2.993202 -17.581940 0.446031 -2.036495 -0.000002 0.000005 0.000000 0.000000 -0.000000 -0.000000 
-6.173406 100.737015 -5.435225 4.600060 -5.577007 0.812443 4.995492 4.438413 -0.218770 2.900549 3.300143 -1.941386 0.000000 0.000000 0.000000 2.820746 3.261077 -2.100405 -9.571883 -0.591770 0.937390 -21.470203 -2.764093 4.545624 -0.000001 -0.000000 -0.000000 0.445965 2.890030 -6.882941 0.000000 0.000000 0.000000 25.092921 -51.446245 -39.866428 0.000000 -18.420141 0.000001 -49.894344 -11.995686 -13.522566 -1.765983 13.580030 7.641519 4.742562 17.876567 1.476423 -0.125160 6.527497 3.024033 -0.000000 -0.000001 0.000001 0.103560 1.192120 -9.929410 0.103566 1.192127 -9.929393 0.000000 -0.000001 0.000000 0.103236 1.190220 -9.913402 0.103894 1.194018 -9.945391 -0.000000 0.000000 -0.000001 0.103560 1.192119 -9.929410 0.103567 1.192126 -9.929396 0.000000 0.000001 0.000001 0.787115 5.188585 -9.457047 0.096228 -2.863096 -10.432489 -0.000001 -0.000000 -0.000003 1.532193 1.257832 10.441980 0.000000 0.000000 0.000000 9.610641 46.464882 45.649525 -0.000004 31.858420 0.000004 -34.274384 0.711792 -3.232380 -2.082023 -13.461647 -8.150997 5.520666 -18.558742 -0.893694 -0.816666 -4.811730 -2.622800 0.000001 0.000000 0.000002 0.104550 -1.203689 9.928028 0.104548 -1.203675 9.928033 -0.000000 0.000001 -0.000001 0.104545 -1.203688 9.928033 0.104551 -1.203682 9.928034 0.000002 -0.000002 0.000002 0.104551 -1.203688 9.928031 0.104551 -1.203679 9.928033 -0.000001 -0.000001 -0.000000 0.104548 -1.203688 9.928028 0.104550 -1.203678 9.928033 -0.000002 -0.000000 -0.000000 -41.333593 17.259868 8.213579 41.333853 -2.711420 9.416060 3.591446 0.121772 -9.364141 -1.851416 -0.074731 2.310839 -0.000000 0.000000 0.000000 -11.927399 -20.521196 0.339707 22.700750 7.615422 -2.192894 -17.559300 0.662947 -1.665218 -0.000001 0.000000 -0.000001 -0.000000 -0.000001 -0.000000 
-5.944960 100.897339 -3.943330 4.896471 -5.901130 1.013177 4.905617 4.600377 -0.453564 2.803745 3.466849 -1.977863 0.000000 0.000000 0.000000 2.717946 3.423202 -2.147115 -9.647238 -0.596481 0.917443 -22.164167 -2.763895 4.201634 -0.000001 -0.000000 -0.000000 0.430259 3.192388 -7.009343 0.000000 0.000000 0.000000 25.095676 -51.318469 -40.087241 -0.000007 -17.771211 -0.000011 -49.839703 -11.864166 -13.380640 -1.765983 13.580030 7.641519 4.742561 17.876565 1.476423 -0.125159 6.527499 3.024033 -0.000001 0.000000 0.000000 0.103560 1.192121 -9.929407 0.103566 1.192125 -9.929393 -0.000000 0.000000 0.000001 0.103236 1.190221 -9.913401 0.103894 1.194019 -9.945392 0.000000 0.000001 -0.000001 0.103560 1.192120 -9.929407 0.103565 1.192123 -9.929393 -0.000001 0.000001 0.000001 0.787117 5.188582 -9.457043 0.096226 -2.863093 -10.432492 -0.000000 0.000000 -0.000001 1.527131 1.258455 10.378020 0.000000 0.000000 0.000000 9.134255 46.242116 45.624619 -0.000002 32.823106 0.000015 -34.152271 0.875189 -4.189112 -2.082031 -13.461644 -8.150998 5.520666 -18.558744 -0.893692 -0.816668 -4.811732 -2.622803 0.000002 -0.000000 -0.000002 0.104545 -1.203686 9.928026 0.104547 -1.203680 9.928033 0.000001 0.000002 0.000000 0.104543 -1.203686 9.928032 0.104556 -1.203677 9.928033 0.000001 -0.000002 -0.000002 0.104545 -1.203687 9.928027 0.104551 -1.203679 9.928033 0.000001 -0.000002 -0.000000 0.104545 -1.203689 9.928027 0.104550 -1.203679 9.928033 -0.000001 0.000000 0.000001 -41.176478 18.807080 8.176237 36.456753 -4.045150 9.537939 2.539561 0.274112 -10.740094 -0.000004 -0.000002 -0.000000 -0.000000 0.000001 0.000000 -10.599346 -20.177419 -0.317829 21.284261 7.685710 -1.410631 -17.457661 0.894893 -1.470981 0.000002 0.000002 0.000000 -0.000000 -0.000002 0.000000 
-5.723981 101.025635 -2.440736 5.209060 -6.114278 1.195764 4.793502 4.691927 -0.650284 2.685834 3.586376 -1.993049 0.000000 0.000000 0.000000 2.596167 3.537058 -2.170880 -9.751067 -0.588753 0.872433 -22.770862 -2.721560 3.849662 0.000000 0.000000 -0.000000 0.412332 3.501859 -7.139735 0.000000 0.000000 0.000000 25.261600 -51.431516 -40.250066 -0.000001 -16.876480 -0.000013 -49.898323 -11.935488 -12.945957 -1.765983 13.580030 7.641518 4.742563 17.876569 1.476423 -0.125159 6.527496 3.024034 -0.000001 0.000000 -0.000000 0.103561 1.192119 -9.929408 0.103566 1.192128 -9.929398 0.000001 -0.000001 -0.000000 0.103235 1.190223 -9.913401 0.103896 1.194019 -9.945390 0.000000 0.000002 -0.000001 0.103561 1.192118 -9.929409 0.103566 1.192128 -9.929395 -0.000001 -0.000001 0.000000 0.787116 5.188585 -9.457046 0.096227 -2.863096 -10.432488 -0.000000 -0.000000 -0.000003 1.517852 1.254442 10.273603 0.000000 0.000000 0.000000 8.573362 46.033043 45.785811 0.000010 33.582507 -0.000006 -33.512292 1.172725 -5.269228 -2.082028 -13.461645 -8.150997 5.520668 -18.558744 -0.893691 -0.816664 -4.811730 -2.622801 -0.000002 0.000000 -0.000001 0.104545 -1.203691 9.928028 0.104546 -1.203678 9.928034 0.000000 0.000000 0.000002 0.104544 -1.203690 9.928033 0.104552 -1.203684 9.928034 -0.000002 -0.000002 -0.000002 0.104545 -1.203690 9.928030 0.104550 -1.203678 9.928033 -0.000001 -0.000002 -0.000002 0.104546 -1.203693 9.928028 0.104544 -1.203681 9.928032 0.000001 0.000000 0.000003 -40.776748 20.839752 8.136931 31.140113 -5.266037 9.492897 1.417808 0.459097 -12.144129 -0.000000 0.000002 0.000000 -0.000000 0.000001 0.000000 -9.309472 -19.825433 -0.827802 19.944477 7.716890 -0.797797 -17.348648 0.980602 -1.333853 -0.000001 0.000005 0.000001 -0.000000 0.000002 0.000000 
-5.520226 101.118851 -0.900805 5.461641 -6.179532 1.365685 4.698510 4.694154 -0.880024 2.572853 3.658413 -2.000357 0.000000 0.000000 0.000000 2.481477 3.603011 -2.185108 -9.874432 -0.577481 0.839187 -23.224025 -2.656655 3.594626 -0.000001 0.000000 -0.000000 0.399798 3.702806 -7.227039 0.000000 0.000000 0.000000 25.440926 -51.658032 -40.500385 -0.000016 -15.676449 -0.000008 -50.232882 -12.221536 -12.533900 -1.765983 13.580031 7.641517 4.742561 17.876567 1.476423 -0.125158 6.527496 3.024033 -0.000000 -0.000000 -0.000000 0.103561 1.192120 -9.929405 0.103567 1.192122 -9.929397 -0.000002 -0.000000 0.000002 0.103235 1.190224 -9.913401 0.103895 1.194018 -9.945393 -0.000000 0.000000 0.000000 0.103561 1.192120 -9.929406 0.103566 1.192124 -9.929397 -0.000001 -0.000000 0.000001 0.787117 5.188586 -9.457044 0.096226 -2.863095 -10.432485 -0.000001 0.000000 0.000001 1.511300 1.247320 10.210196 0.000000 0.000000 0.000000 8.033172 45.820655 45.988476 0.000007 34.248891 -0.000025 -32.745860 1.575171 -6.222237 -2.082028 -13.461647 -8.151002 5.520663 -18.558744 -0.893694 -0.816668 -4.811730 -2.622802 -0.000001 -0.000000 -0.000000 0.104544 -1.203690 9.928028 0.104548 -1.203679 9.928033 -0.000001 -0.000003 -0.000000 0.104543 -1.203686 9.928030 0.104558 -1.203680 9.928032 -0.000001 -0.000002 -0.000000 0.104547 -1.203689 9.928030 0.104549 -1.203681 9.928033 -0.000002 -0.000000 -0.000000 0.104544 -1.203689 9.928027 0.104552 -1.203682 9.928032 -0.000003 0.000000 0.000000 -40.057468 23.161057 8.081353 25.545594 -6.285102 9.067472 0.135179 0.696196 -13.582588 0.000002 -0.000002 0.000002 -0.000000 -0.000001 0.000000 -7.927012 -19.461185 -1.162617 18.649417 7.699959 -0.424767 -17.276641 0.846461 -1.150731 0.000002 0.000007 0.000000 0.000000 -0.000001 -0.000000 
